<?xml version="1.0" encoding="utf-8"?>
<!-- Generator: Adobe Illustrator 25.0.1, SVG Export Plug-In . SVG Version: 6.00 Build 0)  -->

<svg version="1.1" id="Layer_1" xmlns="http://www.w3.org/2000/svg" xmlns:xlink="http://www.w3.org/1999/xlink" x="0px" y="0px"
	 viewBox="0 0 355.5 119.2" style="enable-background:new 0 0 355.5 119.2;" xml:space="preserve">
<g>
	<path d="M65.5,3h10.9v19.6h20.1V3h10.9v49.5H96.4V32.6H76.3v19.9H65.5V3z"/>
	<path d="M116.2,33.7v-0.1c0-10.8,7.7-19.7,18.7-19.7c12.6,0,18.4,9.8,18.4,20.6c0,0.8-0.1,1.8-0.1,2.8h-26.4
		c1.1,4.9,4.5,7.4,9.3,7.4c3.6,0,6.2-1.1,9.2-3.9l6.1,5.4c-3.5,4.4-8.6,7.1-15.5,7.1C124.6,53.3,116.2,45.3,116.2,33.7z M142.9,30.5
		c-0.6-4.8-3.5-8.1-8-8.1c-4.5,0-7.3,3.2-8.2,8.1H142.9z"/>
	<path d="M161.9,0.9h10.7v51.6h-10.7V0.9z"/>
	<path d="M179.7,47.4l4.6-7.1c4.1,3,8.4,4.5,11.9,4.5c3.1,0,4.5-1.1,4.5-2.8v-0.1c0-2.3-3.7-3.1-7.8-4.4c-5.3-1.6-11.3-4-11.3-11.4
		V26c0-7.7,6.2-12,13.9-12c4.8,0,10,1.6,14.1,4.4l-4.1,7.4c-3.7-2.2-7.5-3.5-10.2-3.5c-2.6,0-4,1.1-4,2.6V25c0,2.1,3.6,3.1,7.7,4.5
		c5.3,1.8,11.4,4.3,11.4,11.2v0.1c0,8.4-6.3,12.2-14.5,12.2C190.7,53.1,184.7,51.4,179.7,47.4z"/>
	<path d="M216.3,33.7v-0.1c0-10.8,7.7-19.7,18.7-19.7c12.6,0,18.4,9.8,18.4,20.6c0,0.8-0.1,1.8-0.1,2.8H227c1.1,4.9,4.5,7.4,9.3,7.4
		c3.6,0,6.2-1.1,9.2-3.9l6.1,5.4c-3.5,4.4-8.6,7.1-15.5,7.1C224.7,53.3,216.3,45.3,216.3,33.7z M243,30.5c-0.6-4.8-3.5-8.1-8-8.1
		c-4.5,0-7.3,3.2-8.2,8.1H243z"/>
	<path d="M261.5,14.6h10.7v5.4c2.5-3.2,5.7-6.1,11.1-6.1c8.1,0,12.9,5.4,12.9,14.1v24.5h-10.7V31.3c0-5.1-2.4-7.7-6.5-7.7
		s-6.7,2.6-6.7,7.7v21.1h-10.7V14.6z"/>
	<path d="M5.8,69.8h16.1c15.5,0,26.3,10.7,26.3,24.7v0.1c0,13.9-10.7,24.7-26.3,24.7H5.8V69.8z M22,117c14.2,0,23.7-9.9,23.7-22.4
		v-0.1C45.7,82,36.2,72,21.9,72H8.2V117H22z"/>
	<path d="M67.8,69.8h34.8V72H70.2v21.3h29.3v2.2H70.2V117h32.8v2.2H67.8V69.8z"/>
	<path d="M118.4,112l1.6-1.8c5.2,4.9,11,7.5,18.2,7.5c8.6,0,14.1-4.7,14.1-10.9v-0.1c0-5.8-3.3-8.9-15.3-11.4
		c-12.1-2.4-16.8-6.2-16.8-13.4v-0.1c0-7.1,6.7-12.8,16-12.8c6.8,0,12.2,2.1,16.8,5.8l-1.5,1.9c-4.5-3.6-9.7-5.5-15.5-5.5
		c-8.1,0-13.5,4.9-13.5,10.4v0.1c0,5.7,3.3,8.9,15.3,11.4c12.3,2.5,16.7,6.4,16.7,13.4v0.1c0,7.6-6.6,13.3-16.7,13.3
		C130.4,119.9,124,117.2,118.4,112z"/>
	<path d="M174.5,69.8h2.4v49.5h-2.4V69.8z"/>
	<path d="M196.9,94.6v-0.1c0-13.3,9.5-25.6,24.4-25.6c7.8,0,12.6,2.3,17.5,6.4l-1.6,1.8c-4.3-3.6-8.8-6.1-16.1-6.1
		c-13.1,0-21.8,11.2-21.8,23.3v0.1c0,12.8,8.3,23.4,22.2,23.4c6.9,0,12.9-3,16.9-6.4V96.4h-17.6v-2.3h19.9v18.4
		c-4.6,4.2-11.3,7.6-19.3,7.6C206,120.1,196.9,108.5,196.9,94.6z"/>
	<path d="M261.4,69.8h2.2l36.2,45.4V69.8h2.3v49.5h-1.9l-36.5-45.7v45.7h-2.3V69.8z"/>
	<path d="M320.7,112l1.6-1.8c5.2,4.9,11,7.5,18.2,7.5c8.6,0,14.1-4.7,14.1-10.9v-0.1c0-5.8-3.3-8.9-15.3-11.4
		c-12.1-2.4-16.8-6.2-16.8-13.4v-0.1c0-7.1,6.7-12.8,16-12.8c6.8,0,12.2,2.1,16.8,5.8l-1.5,1.9c-4.5-3.6-9.7-5.5-15.5-5.5
		c-8.1,0-13.5,4.9-13.5,10.4v0.1c0,5.7,3.3,8.9,15.3,11.4c12.3,2.5,16.7,6.4,16.7,13.4v0.1c0,7.6-6.6,13.3-16.7,13.3
		C332.7,119.9,326.3,117.2,320.7,112z"/>
</g>
</svg>
